Coordinates
version=1
nRows=9
nColumns=24
inDegrees=yes

Units are S.I. units (second, meters, Newtons, ...)
Angles are in degrees.

endheader
time	pelvis_tilt	pelvis_list	pelvis_rotation	pelvis_tx	pelvis_ty	pelvis_tz	hip_flexion_r	hip_adduction_r	hip_rotation_r	knee_angle_r	ankle_angle_r	subtalar_angle_r	mtp_angle_r	hip_flexion_l	hip_adduction_l	hip_rotation_l	knee_angle_l	ankle_angle_l	subtalar_angle_l	mtp_angle_l	lumbar_extension	lumbar_bending	lumbar_rotation
      0.62000000	      0.47861883	     10.64461225	      1.94153982	     -0.81219479	      0.96801669	      0.30309324	     27.62147838	    -13.20822861	     -0.24723596	     -0.58368938	      5.00399196	     -2.74632018	      0.36637368	    -22.73315686	     12.80265367	     15.15222114	     -0.76143414	     10.99741287	    -15.01976851	      0.48071905	    -13.46498678	     -3.65003534	     -9.56172262
      0.62416667	      0.41877568	     10.53262230	      2.00197542	     -0.80634950	      0.96733082	      0.30368763	     27.72414783	    -13.08426815	      0.15241089	     -1.28021981	      4.82873691	     -3.19536156	      0.44822013	    -22.81923919	     12.65657349	     15.08069635	     -1.19253415	     11.06065661	    -14.94602833	      0.53355075	    -13.38384813	     -3.45940605	     -9.57180941
      0.62833333	      0.37506217	     10.41150404	      2.05807644	     -0.80044811	      0.96669561	      0.30429469	     27.79644489	    -12.94584064	      0.52848620	     -1.97323314	      4.54387039	     -3.72861575	      0.55481411	    -22.89855365	     12.50257463	     14.92816266	     -1.67066520	     11.17999165	    -14.73438898	      0.61480721	    -13.29288014	     -3.26196860	     -9.55343800
      0.63250000	      0.32661606	     10.29294110	      2.11600034	     -0.79450885	      0.96608791	      0.30490472	     27.88333386	    -12.80812137	      0.85096462	     -2.70788685	      4.25117500	     -4.19356444	      0.66272160	    -22.94995848	     12.35455514	     14.76865949	     -2.20064349	     11.30141987	    -14.51615576	      0.70741607	    -13.19069708	     -3.05928513	     -9.53201113
      0.63666667	      0.27849732	     10.16313362	      2.17874783	     -0.78853355	      0.96551748	      0.30550987	     27.96104287	    -12.65936310	      1.14249136	     -3.44309418	      3.91008040	     -4.64507255	      0.77653722	    -22.98816670	     12.19416831	     14.59647575	     -2.75516245	     11.39546921	    -14.29385372	      0.82001987	    -13.10039588	     -2.84394234	     -9.51215496
      0.64083333	      0.22389447	     10.03179497	      2.23595139	     -0.78251845	      0.96495703	      0.30613884	     28.05121840	    -12.50291146	      1.40261944	     -4.19669297	      3.52685438	     -5.08295794	      0.88517562	    -23.00844292	     12.03519321	     14.41849729	     -3.33353955	     11.46756745	    -14.08763818	      0.94425774	    -12.99068510	     -2.62753693	     -9.48790125
      0.64500000	      0.15722642	      9.88828456	      2.29320122	     -0.77646737	      0.96441592	      0.30677128	     28.15513133	    -12.33258797	      1.62649173	     -4.96213534	      3.14234589	     -5.44422086	      0.95489338	    -22.99485309	     11.87010428	     14.26487286	     -3.95056131	     11.50033269	    -13.97609903	      1.03699375	    -12.88396578	     -2.38737893	     -9.46483839
      0.64916667	      0.09694630	      9.76199369	      2.35506706	     -0.77038452	      0.96390759	      0.30742408	     28.25240997	    -12.17784157	      1.82420141	     -5.72659914	      2.62822979	     -5.92598684	      1.06163302	    -22.97679812	     11.71374501	     14.03997734	     -4.58959715	     11.57144303	    -13.65436155	      1.20233420	    -12.74788935	     -2.18571971	     -9.44292359
      0.65333333	      0.01638148	      9.60613159	      2.41388745	     -0.76426938	      0.96340472	      0.30807415	     28.37343931	    -11.99312264	      1.97168296	     -6.50310052	      2.14282989	     -6.24811521	      1.13473285	    -22.91736538	     11.53791783	     13.84517277	     -5.26520250	     11.54801946	    -13.51433618	      1.33249096	    -12.62433244	     -1.93752801	     -9.41384611
